<?xml version="1.0" encoding="utf-8"?>
<!-- Generator: Adobe Illustrator 17.1.0, SVG Export Plug-In . SVG Version: 6.00 Build 0)  -->
<!DOCTYPE svg PUBLIC "-//W3C//DTD SVG 1.1//EN" "http://www.w3.org/Graphics/SVG/1.1/DTD/svg11.dtd">
<svg version="1.1" id="Layer_1" xmlns="http://www.w3.org/2000/svg" xmlns:xlink="http://www.w3.org/1999/xlink" x="0px" y="0px"
	 viewBox="0 216 792 792" enable-background="new 0 216 792 792" xml:space="preserve">
<g>
	<path fill="#F4F4F5" d="M389,507.2c-7-41.9-34.9-76.9-67.6-76.9c-30.3,0-51.2,30.3-46.6,72.2c7,41.9,34.9,76.9,67.6,76.9
		C375,581.7,396,546.8,389,507.2z"/>
	<path fill="#F4F4F5" d="M368,665.6c-9.3-2.3-18.6-4.7-30.3-4.7c-46.6-2.3-88.5,28-88.5,62.9s34.9,65.2,81.5,65.2
		c65.2,0,88.5-28,88.5-62.9c0-2.3-2.3-7-2.3-11.6C412.3,693.5,393.7,684.2,368,665.6z"/>
	<path fill="#F4F4F5" d="M396,216C177,216,0,393,0,612s177,396,396,396s396-177,396-396S615,216,396,216z M449.6,721.5
		c0,44.3-44.3,88.5-121.1,88.5c-67.6,0-125.8-28-125.8-72.2s53.6-88.5,121.1-88.5c7,0,14,0,21,0c-9.3-9.3-16.3-21-16.3-34.9
		c0-9.3,2.3-16.3,7-23.3c-4.7,0-7,0-11.6,0c-55.9,0-93.2-39.6-93.2-88.5c0-48.9,51.2-90.8,107.2-90.8h123.5l-28,21h-39.6
		c25.6,9.3,39.6,39.6,39.6,69.9c0,28-14,48.9-34.9,65.2c-18.6,16.3-23.3,21-23.3,34.9c0,9.3,21,30.3,32.6,37.3
		C440.3,663.2,451.9,684.2,449.6,721.5z M587,623.6h-48.9v48.9h-39.6v-48.9h-48.9V584h48.9v-48.9h39.6V584H587V623.6z"/>
</g>
</svg>
