<?xml version="1.0" encoding="utf-8"?>
<!-- Generator: Adobe Illustrator 17.1.0, SVG Export Plug-In . SVG Version: 6.00 Build 0)  -->
<!DOCTYPE svg PUBLIC "-//W3C//DTD SVG 1.1//EN" "http://www.w3.org/Graphics/SVG/1.1/DTD/svg11.dtd">
<svg version="1.1" id="Layer_1" xmlns="http://www.w3.org/2000/svg" xmlns:xlink="http://www.w3.org/1999/xlink" x="0px" y="0px"
	 viewBox="90 0 612.1 611.9" enable-background="new 90 0 612.1 611.9" xml:space="preserve">
<g>
	<path fill="none" d="M453.1,606.7c29.1-5.5,56.7-15.1,82.2-28.1c0,0,0,0-0.1,0C509.7,591.6,482.1,601.2,453.1,606.7L453.1,606.7z"
		/>
	<path fill="none" d="M694.1,375.3c-0.5,2.2-1.1,4.4-1.6,6.7C693.1,379.7,693.6,377.5,694.1,375.3z"/>
	<path fill="none" d="M695.6,368.4c-0.4,2.1-0.9,4.2-1.4,6.2C694.7,372.6,695.2,370.5,695.6,368.4z"/>
	<path fill="none" d="M697.2,360.5c-0.4,2.2-0.8,4.5-1.3,6.7C696.3,365,696.8,362.7,697.2,360.5z"/>
	<path fill="none" d="M698.3,353.4c-0.3,2-0.7,4.1-1,6.1C697.7,357.4,698,355.4,698.3,353.4z"/>
	<path fill="none" d="M680.7,418.3c-0.8,2.1-1.7,4.2-2.6,6.3C679,422.5,679.9,420.4,680.7,418.3z"/>
	<path fill="none" d="M699.5,345.5c-0.3,2.3-0.6,4.5-0.9,6.7C698.9,350,699.2,347.7,699.5,345.5z"/>
	<path fill="none" d="M692.2,383.2c-1.2,4.5-2.4,8.9-3.8,13.2C689.8,392,691,387.6,692.2,383.2z"/>
	<path fill="none" d="M677.8,425.4c-0.9,2.2-1.8,4.3-2.8,6.4C676,429.7,676.9,427.6,677.8,425.4z"/>
	<path fill="none" d="M683.3,411.7c-0.8,2.2-1.6,4.3-2.5,6.5C681.6,416,682.5,413.8,683.3,411.7z"/>
	<path fill="none" d="M688.1,397.6c-1.4,4.4-2.9,8.8-4.4,13.1C685.2,406.3,686.7,402,688.1,397.6z"/>
	<path fill="none" d="M700.3,338c-0.2,2-0.4,4.1-0.7,6.1C699.9,342.1,700.1,340.1,700.3,338z"/>
	<path fill="none" d="M90.9,329c-0.2-2.3-0.3-4.6-0.4-7C90.5,324.4,90.7,326.7,90.9,329z"/>
	<path fill="none" d="M701.1,330.2c-0.2,2.3-0.4,4.6-0.6,6.8C700.7,334.7,700.9,332.5,701.1,330.2z"/>
	<path fill="none" d="M91.5,336.8c-0.2-2.3-0.4-4.6-0.6-6.9C91.1,332.2,91.3,334.6,91.5,336.8z"/>
	<path fill="none" d="M93.5,352.5c-0.4-2.4-0.7-4.7-1-7.1C92.8,347.7,93.1,350.1,93.5,352.5z"/>
	<path fill="none" d="M90.4,321.2c-0.1-2.4-0.2-4.8-0.3-7.2C90.2,316.5,90.3,318.8,90.4,321.2z"/>
	<path fill="none" d="M701.9,314.7c-0.1,2.3-0.1,4.6-0.3,6.9C701.7,319.3,701.8,317,701.9,314.7z"/>
	<path fill="none" d="M701.6,322.3c-0.1,2.1-0.2,4.3-0.4,6.4C701.3,326.5,701.5,324.4,701.6,322.3z"/>
	<path fill="none" d="M90.1,313.5c-0.1-2.5-0.1-5-0.1-7.5C90,308.5,90,311,90.1,313.5z"/>
	<path fill="none" d="M702,306c0,2.3,0,4.7-0.1,7C702,310.7,702,308.4,702,306z"/>
	<path fill="none" d="M92.4,344.7c-0.3-2.3-0.6-4.6-0.8-7C91.9,340,92.1,342.4,92.4,344.7z"/>
	<path fill="none" d="M671.8,438.8c-1,2.1-2.1,4.3-3.2,6.4C669.7,443.1,670.7,440.9,671.8,438.8z"/>
	<path fill="none" d="M388.1,0.1c-162.7,4.1-293.9,135.3-298,298C94.2,135.4,225.4,4.2,388.1,0.1z"/>
	<path fill="none" d="M668.4,445.5c-2.2,4.3-4.5,8.6-6.9,12.8C663.9,454.1,666.2,449.8,668.4,445.5z"/>
	<path fill="none" d="M701.9,298.1c-4.1-162.7-135.3-293.9-298-298C566.6,4.2,697.8,135.4,701.9,298.1z"/>
	<path fill="none" d="M557.6,565.9L557.6,565.9c42.9-26.7,78.6-63.7,103.8-107.5C636.2,502.2,600.5,539.2,557.6,565.9z"/>
	<path fill="none" d="M674.9,432.1c-1,2.1-1.9,4.2-2.9,6.3C672.9,436.3,673.9,434.2,674.9,432.1z"/>
	<path fill="none" d="M93.6,352.8c10.9,71.1,46.3,134.2,97.3,180.3l0,0C139.9,487,104.5,423.9,93.6,352.8z"/>
	<path fill="#FFFFFF" d="M701.6,321.6c0,0.2,0,0.4,0,0.7C701.6,322,701.6,321.8,701.6,321.6z"/>
	<path fill="#FFFFFF" d="M701.2,328.7c0,0.5-0.1,1-0.1,1.5C701.1,329.7,701.1,329.2,701.2,328.7z"/>
	<path fill="#FFFFFF" d="M701.9,313c0,0.6,0,1.1,0,1.6C701.9,314.1,701.9,313.6,701.9,313z"/>
	<path fill="#FFFFFF" d="M90.4,322c0-0.3,0-0.6,0-0.8C90.4,321.5,90.4,321.8,90.4,322z"/>
	<path fill="#FFFFFF" d="M675,431.8c0,0.1-0.1,0.2-0.1,0.3C674.9,432,675,431.9,675,431.8z"/>
	<path fill="#FFFFFF" d="M93.6,352.8c0-0.1,0-0.2-0.1-0.4C93.5,352.6,93.5,352.7,93.6,352.8z"/>
	<path fill="#FFFFFF" d="M90.9,329.9c0-0.3,0-0.6-0.1-0.9C90.9,329.3,90.9,329.6,90.9,329.9z"/>
	<path fill="#FFFFFF" d="M700.4,337c0,0.3-0.1,0.7-0.1,1C700.4,337.7,700.4,337.3,700.4,337z"/>
	<path fill="#FFFFFF" d="M91.6,337.7c0-0.3-0.1-0.6-0.1-0.9C91.6,337.1,91.6,337.4,91.6,337.7z"/>
	<path fill="#FFFFFF" d="M90.1,314.1c0-0.2,0-0.4,0-0.6C90.1,313.7,90.1,313.9,90.1,314.1z"/>
	<path fill="#FFFFFF" d="M92.5,345.4c0-0.2-0.1-0.5-0.1-0.7C92.5,344.9,92.5,345.1,92.5,345.4z"/>
	<path fill="#FFFFFF" d="M688.4,396.4c-0.1,0.4-0.2,0.8-0.4,1.2C688.2,397.2,688.3,396.8,688.4,396.4z"/>
	<path fill="#FFFFFF" d="M668.6,445.2c0,0.1-0.1,0.2-0.2,0.3C668.5,445.4,668.5,445.3,668.6,445.2z"/>
	<path fill="#FFFFFF" d="M683.6,410.6c-0.1,0.3-0.2,0.7-0.4,1C683.4,411.3,683.5,411,683.6,410.6z"/>
	<path fill="#FFFFFF" d="M692.5,381.9c-0.1,0.4-0.2,0.8-0.3,1.2C692.3,382.8,692.4,382.3,692.5,381.9z"/>
	<path fill="#FFFFFF" d="M694.3,374.7c0,0.2-0.1,0.4-0.1,0.6C694.2,375.1,694.2,374.9,694.3,374.7z"/>
	<path fill="#FFFFFF" d="M678.1,424.6c-0.1,0.3-0.2,0.5-0.3,0.8C677.9,425.2,678,424.9,678.1,424.6z"/>
	<path fill="#FFFFFF" d="M671.9,438.4c-0.1,0.1-0.1,0.3-0.2,0.4C671.8,438.7,671.9,438.5,671.9,438.4z"/>
	<path fill="#FFFFFF" d="M680.8,418.2c0,0,0,0.1-0.1,0.1C680.7,418.3,680.8,418.2,680.8,418.2z"/>
	<path fill="#FFFFFF" d="M695.9,367.2c-0.1,0.4-0.2,0.8-0.3,1.2C695.7,368,695.8,367.6,695.9,367.2z"/>
	<path fill="#FFFFFF" d="M698.5,352.2c-0.1,0.4-0.1,0.8-0.2,1.2C698.4,353,698.5,352.6,698.5,352.2z"/>
	<path fill="#FFFFFF" d="M697.3,359.5c-0.1,0.3-0.1,0.7-0.2,1C697.2,360.1,697.3,359.8,697.3,359.5z"/>
	<path fill="#FFFFFF" d="M661.5,458.3C661.5,458.3,661.4,458.3,661.5,458.3C661.4,458.3,661.5,458.3,661.5,458.3z"/>
	<path fill="#FFFFFF" d="M699.6,344.1c-0.1,0.4-0.1,0.9-0.2,1.3C699.5,345,699.6,344.6,699.6,344.1z"/>
	<path fill="#FFFFFF" d="M467.4,584.3c-1.5,1.5-1.5,1.5-1.5,1.5c-5.1,6.3-9,12.7-12.8,20.9c29-5.5,56.6-15,82.1-28.1
		c-3.1-1.7-6.4-3.1-9.5-4.4C519.9,566.8,476.1,566.8,467.4,584.3z"/>
	<path fill="#FFFFFF" d="M282.1,396.3c-4.4,4.4-5.8,2.9-13.1,8.7c7.3,45.2,32.1,75.8,67,91.8c11.7,5.8,27.7,8.7,43.7,7.3
		c0,0-13.1-7.3-20.4-10.2c-16-8.7-30.6-20.4-37.9-37.9c-7.3-16,1.5-35,17.5-37.9c14.6-2.9,23.3,4.4,33.5,8.7
		c27.7,14.6,69.9,35,113.7,23.3c8.7-2.9,16-16,18.9-27.7c-11.7-8.7-21.9-20.4-26.2-36.4c0,0,18.9-13.1,27.7-17.5
		c2.9-1.5,10.2-5.8,10.2-5.8s-13.1-8.7-20.4-11.7c-7.3-4.4-20.4-11.7-20.4-11.7c6.1-27.5,16.3-50.8,46.9-55.2c0-4.4,0-10.2-1.5-14.6
		c-5.8-16-13.1-32.1-24.8-45.2l-1.5-1.5c-20.4-17.5-52.5-33.5-93.3-30.6c-14.6,1.5-32.1,5.8-45.2,11.7c-7.3,2.9-16,7.3-21.9,11.7
		c-5.8,2.9-5.8,2.9-7.3,5.8c-4.4,7.3-8.7,26.2-10.2,35c-1.5,7.3-2.9,33.5-2.9,33.5c-10.2,8.7-13.1,10.2-14.6,32.1
		c-1.5,18.9-1.5,16-1.5,36.4C298.1,373,292.3,389,282.1,396.3z M404.7,273.8c33.6,14.7,45.2,80.3,20.4,113.8
		c-5.8,7.3-16,16-24.8,18.9c-30.6,8.7-52.5-13.1-59.7-37.9c1.5-1.5,42.3-20.4,42.3-20.4l-45.2-21.9
		C340.6,291.3,371.2,259.3,404.7,273.8z"/>
	<path fill="#FFFFFF" d="M482,483.8c-13.1,8.7-24.8,16-37.9,21.9c0,13.1,1.5,32.1,8.7,43.7c0-4.4,1.5-10.2,1.5-14.6
		c4.4,7.3,5.8,16,8.7,23.3c11.7-11.7,35-16,49.5-16c-4.4-7.3-8.7-16-13.1-23.3C493.6,507.1,489.3,494,482,483.8z"/>
	<path fill="#FFFFFF" d="M429.6,511.3c-8.7,2.9-17.5,4.4-27.7,5.8c-39.3,4.4-72.9-7.3-94.7-21.9c0,29.1-8.7,61.2-36.4,72.9v7.3
		c10.2,17.5,45.2,14.6,62.7,27.7c1.7,0.8,3.1,1.9,4.4,3.2c18.9,3.6,38.4,5.6,58.3,5.6c11.5,0.1,23-0.6,34.4-1.9
		c8.2-6.1,17-11.7,22.3-19.9c0-7.3,0-14.6,0-21.9c-1.5,0-2.9,0-4.4-1.5C435.4,555,431,530.3,429.6,511.3z"/>
	<path fill="#FFFFFF" d="M334.8,463.4c11.7,13.1,43.7,32.1,64.1,35c33.5,4.4,55.4-13.1,68.5-23.3c7.3-5.8,7.3-4.4,13.1-16
		c-39.3,1.5-67-4.4-91.8-16c-17.5-8.7-32.1-23.3-52.5-13.1c10.2,13.1,24.8,20.4,39.3,33.5c-17.5-5.8-29.1-14.6-46.6-23.3
		C324.6,448.8,331.9,460.5,334.8,463.4z"/>
	<path fill="#FFFFFF" d="M292.6,485.2c-7.3-7.3-11.7-13.1-21.9-24.8c-1.5-1.5-7.3-7.3-7.3-7.3c-11.7,10.2-20.4,24.8-29.1,37.9
		c-12.4,17.5-21.1,32.8-29.2,54.1c15.4,12.3,32,23.2,49.7,32.4c-0.4-2-0.8-3.9-1.6-6.3c0-1.5,0-2.9,0-4.4c0-4.4,4.4-16,7.3-23.3
		s4.4-11.7,11.7-16c-1.5,8.7-2.9,17.5-2.9,26.2C291.2,540.6,292.6,508.5,292.6,485.2z"/>
	<path fill="#FFFFFF" d="M661.4,458.4C661.4,458.3,661.5,458.3,661.4,458.4c2.5-4.3,4.8-8.5,7-12.9c0-0.1,0.1-0.2,0.2-0.3
		c1.1-2.1,2.1-4.3,3.2-6.4c0.1-0.1,0.1-0.3,0.2-0.4c1-2.1,2-4.2,2.9-6.3c0-0.1,0.1-0.2,0.1-0.3c1-2.1,1.9-4.3,2.8-6.4
		c0.1-0.3,0.2-0.5,0.3-0.8c0.9-2.1,1.7-4.2,2.6-6.3c0,0,0-0.1,0.1-0.1c0.8-2.2,1.7-4.3,2.5-6.5c0.1-0.3,0.3-0.7,0.4-1
		c1.6-4.3,3-8.7,4.4-13.1c0.1-0.4,0.2-0.8,0.4-1.2c1.4-4.4,2.6-8.8,3.8-13.2c0.1-0.4,0.2-0.8,0.3-1.2c0.6-2.2,1.1-4.4,1.6-6.7
		c0-0.2,0.1-0.4,0.1-0.6c0.5-2.1,0.9-4.1,1.4-6.2c0.1-0.4,0.2-0.8,0.3-1.2c0.5-2.2,0.9-4.5,1.3-6.7c0.1-0.3,0.1-0.7,0.2-1
		c0.4-2,0.7-4,1-6.1c0.1-0.4,0.1-0.8,0.2-1.2c0.3-2.2,0.7-4.5,0.9-6.7c0.1-0.4,0.1-0.9,0.2-1.3c0.3-2,0.5-4.1,0.7-6.1
		c0-0.3,0.1-0.7,0.1-1c0.2-2.3,0.4-4.5,0.6-6.8c0-0.5,0.1-1,0.1-1.5c0.2-2.1,0.3-4.3,0.4-6.4c0-0.2,0-0.4,0-0.7
		c0.1-2.3,0.2-4.6,0.3-6.9c0-0.5,0-1.1,0-1.6c0.1-2.3,0.1-4.7,0.1-7c0-2.6,0-5.3-0.1-7.9C697.9,135.7,566.7,4.5,404,0.4
		C401.3,0,398.6,0,396,0s-5.3,0-7.9,0.1c-162.7,4.1-293.9,135.3-298,298c-0.1,2.6-0.1,5.3-0.1,7.9c0,2.5,0,5,0.1,7.5
		c0,0.2,0,0.4,0,0.6c0.1,2.4,0.2,4.8,0.3,7.2c0,0.3,0,0.6,0,0.8c0.1,2.3,0.3,4.7,0.4,7c0,0.3,0,0.6,0.1,0.9c0.2,2.3,0.4,4.6,0.6,6.9
		c0,0.3,0.1,0.6,0.1,0.9c0.2,2.3,0.5,4.6,0.8,7c0,0.2,0.1,0.5,0.1,0.7c0.3,2.4,0.6,4.7,1,7.1c0,0.1,0,0.2,0.1,0.4
		c10.9,71.1,46.3,134.2,97.3,180.3c0.4-0.9,0.7-1.8,1.1-2.7c17.5-39.3,43.7-69.9,61.2-91.8c0-1.5,0-1.5,0-2.9h-1.5
		c-7.3-8.7-17.5-20.4-24.8-29.1c-5.8-8.7-18.9-21.9-18.9-35c-1.5-4.4-2.9-8.7-2.9-13.1c0-2.9-2.9-30.6-2.9-40.8
		c0-43.7,1.5-59.7,0-87.4c0-24.8-1.5-35,10.2-49.5c17.5-21.9,35-8.7,56.8,1.5c36.4,17.5,26.2,11.7,36.4,17.5
		c2.9,0-35-18.9-48.1-32.1c-4.4-20.4,7.3-35,14.6-46.6c35-29.1,81.6-33.5,132.6-29.1c23.3,2.9,46.6,11.7,68.5,23.3
		c33.5,16,48.1,29.1,65.6,56.8c7.3,10.2,11.7,18.9,14.6,33.5c4.4,18.9,2.9,35,0,64.1c-1.5,10.2,0,30.6-4.4,39.3
		c16,39.3,4.4,100.5-29.1,113.7c-7.3,17.5-18.9,32.1-27.7,48.1c11.7,24.8,26.2,45.2,37.9,68.5c1.5-1.5,5.8-2.9,11.7-1.5l15.8,28.1
		C600.5,539.2,636.2,502.2,661.4,458.4z"/>
	<path fill="#FFFFFF" d="M276.5,358.5c1.5-20.4-10.2-39.4-30.6-37.9c-37.9,2.9-32.1,69.9,2.9,68.5
		C261.9,389.1,275,374.5,276.5,358.5z"/>
	<path fill="#FFFFFF" d="M267.7,323.5c7.3,5.8,11.7,11.7,13.1,23.3c2.9,17.5-4.4,32.1-11.7,42.3c27.8-8.8,23.4-67.1-7.2-70
		C261.9,319.1,266.3,322,267.7,323.5z"/>
</g>
</svg>
