<?xml version="1.0" encoding="utf-8"?>
<!-- Generator: Adobe Illustrator 17.1.0, SVG Export Plug-In . SVG Version: 6.00 Build 0)  -->
<!DOCTYPE svg PUBLIC "-//W3C//DTD SVG 1.1//EN" "http://www.w3.org/Graphics/SVG/1.1/DTD/svg11.dtd">
<svg version="1.1" id="Layer_1" xmlns="http://www.w3.org/2000/svg" xmlns:xlink="http://www.w3.org/1999/xlink" x="0px" y="0px"
	 viewBox="-112 0 1016 1224" enable-background="new -112 0 1016 1224" xml:space="preserve">
<g>
	<g>
		<g>
			<path fill="none" d="M551.7,731.2c-0.5,0.5-0.5,1-1,1C551.1,731.7,551.1,731.7,551.7,731.2"/>
			<path fill="none" d="M372.2,803.6c0,0.5,0,0.5-0.5,1C371.7,804.6,371.7,804.1,372.2,803.6C371.7,804.1,371.7,803.6,372.2,803.6"
				/>
			<path fill="#E55499" d="M375.3,796.3c-1,2.6-2.6,4.7-3.1,7.2c0.5-2.6,1-4.7,1.6-6.7L375.3,796.3z"/>
			<path fill="#E55499" d="M385.7,800.5c-0.5,0.5-0.5,1-0.5,1.6c-1-1-1.6-1.6-2.6-2.6C383.1,800,384.1,800.5,385.7,800.5
				L385.7,800.5z"/>
			<path fill="#E55499" d="M396,829.4c-1,0-2.1-0.5-3.1-0.5c0.5-0.5,0.5-1.6,1-2.1C394.4,827.9,395,828.4,396,829.4L396,829.4z"/>
			<path fill="none" d="M371.7,804.6L371.7,804.6C371.7,804.1,371.7,804.1,371.7,804.6c0-0.5,0-0.5,0-0.5 M371.7,804.6L371.7,804.6
				C371.7,804.1,371.7,804.1,371.7,804.6c0-0.5,0-0.5,0-0.5"/>
			<path fill="none" d="M298.3,840.3L298.3,840.3l2.1,1.6C299.8,841.3,299.3,840.8,298.3,840.3"/>
			<path fill="none" d="M372.2,803.6c0,0.5,0,0.5-0.5,1C371.7,804.6,371.7,804.1,372.2,803.6C371.7,804.1,371.7,803.6,372.2,803.6"
				/>
			<path fill="#E55499" d="M385.7,800.5c-0.5,0.5-0.5,1-0.5,1.6c-1-1-1.6-1.6-2.6-2.6C383.1,800,384.1,800.5,385.7,800.5
				L385.7,800.5z"/>
			<path fill="#E55499" d="M396,829.4c-1,0-2.1-0.5-3.1-0.5c0.5-0.5,0.5-1.6,1-2.1C394.4,827.9,395,828.4,396,829.4L396,829.4z"/>
			<path fill="#E55499" d="M423.4,859.4c-1.6,1-4.1,2.1-6.2,2.6C420.8,860.5,422.9,859.4,423.4,859.4L423.4,859.4z"/>
			<path fill="#E55499" d="M425,856.3c0.5,1,0,1.6-1,2.6L425,856.3z"/>
			<path fill="#E55499" d="M458.1,273.6c48.6,21.2,66.7,117.4,29,167c-8.3,10.9-23.8,24.3-35.7,27.4c-46,13.4-77-19.1-88.9-56.9
				c2.6-2.1,63.1-29,63.1-29l-68.3-32.6C361.4,297.3,407.4,251.8,458.1,273.6L458.1,273.6z"/>
			<path fill="#E55499" d="M685.1,1059.6c-23.3-25.3-61-53.8-100.3-53.3c-25.3,0-60,13.4-79.6,22.8c-24.8,11.9-39.8,27.9-58.4,38.8
				c32.1-44,77.6-75,155.7-72.9c0.5-12.9-3.6-16.5-4.7-32.6c38.8-24.8,94.6-24.8,123.1-56.9c33.1-37.2,25.9-103.9,1.6-141.2
				c-14-21.2-24.3-33.6-40.9-47.6c3.6-1,6.2-3.6,7.2-7.2l-27.9-50.2c-8.3-1.6-14,0-18.1,2.6c-18.1-33.6-38.8-65.2-54.8-100.8
				c13.4-23.8,30-44.5,40.3-71.4c49.1-18.6,65.7-110.7,43.4-167.5c5.7-14,4.7-42.4,6.2-57.9c3.6-42.4,6.7-67.7,0-94.1
				c-5.2-20.7-10.9-33.6-20.7-49.6c-25.9-41.4-48.6-61-96.2-84.8c-32.6-16-66.7-30.5-100.8-33.6c-76-7.2-144.8-0.5-195,43.4
				c-11.4,17.6-27.9,37.7-20.7,68.8c19.7,20.2,74.5,47.1,71.9,48.1c-15.5-8.8,0,0-52.7-25.9c-32.1-15.5-59-34.1-83.3-3.1
				c-17.1,22.2-16,37.2-14.5,73.4c2.1,40.9-0.5,64.6,0,129.8c0,14,4.1,54.8,4.7,60v0.5c0.5,7.2,1.6,13.4,3.6,19.7
				c1,20.2,18.6,37.7,29,51.2c10.3,13.4,25.9,29.5,35.7,43.4h1.6c0.5,1,0.5,2.6,1,3.6c-32.6,33.6-71.9,77.6-97.2,136
				c-11.4,26.4-22.8,69.3-31,85.8c-2.1,8.3-23.8,69.8-27.4,91c-2.6,14.5-2.6,27.4-0.5,39.8c-0.5,0-0.5,0.5-1,0.5
				c-1.6,1-9.8,4.1-16.5,6.7l-3.1,1l-2.1,2.6c-14.5,21.7-17.1,45.5-6.7,64.6c9.3,17.6,28.4,27.9,50.7,27.9c4.7,0,9.3-0.5,14-1
				c1,0,2.6-0.5,48.1-18.6c5.2,1,9.8,2.6,14,5.7c-4.7,22.8-9.8,45.5-16,66.7c9.8,2.1,16-8.3,24.3-12.9
				c25.3-13.4,64.1-23.3,100.3-21.2c33.1,2.1,50.2,18.6,71.4,32.6c4.1,3.1,11.4,9.3,14.5,14.5c4.1,5.7,6.7,12.9,12.9,16
				c4.7-23.3,3.6-51.7,9.8-72.9c3.1,26.4,1.6,63.1,1.6,91c0,9.8,0.5,18.6-3.1,27.4c-10.3-27.9-28.4-52.2-48.6-68.3
				c-7.2-5.7-11.9-9.3-19.7-12.9c-35.2-17.1-93.1-12.9-124.6,1.6c-47.6,21.7-69.3,52.7-87.4,103.4c-9.8,28.4-17.6,52.7-11.4,87.4
				c16,16.5,42.9,11.4,68.3,11.4H335c23.8,0,64.1,5.7,79.6-1.6c10.9-5.2,8.3-16.5,16-19.7c9.8-3.6,32.1,0,50.2,0
				c50.7,0,108.6,0,148.9-1.6c38.3-1.6,85.3,6.7,92.6-22.8c1-29-1-50.2-8.3-69.8C706.8,1086.4,698,1074,685.1,1059.6z M225.9,1036.8
				c18.6-10.3,67.7-8.8,88.9-1.6c2.6,10.3,6.7,18.1,8.3,29.5c-27.4,0-68.8-3.6-100.3,0C221.2,1058,225.4,1046.6,225.9,1036.8z
				 M211.9,1045.1c0.5,6.2-2.6,28.4-2.6,28.4s56.9-5.2,70.8-2.1c6.2-1,26.4,0,28.4,0c5.2,0,18.6,1,29.5,1c-1-8.3-2.6-18.6-7.2-33.6
				c18.6,6.2,52.2,54.3,58.4,103.9c-7.8-0.5-34.1-1.6-34.1-1.6s-31.5-44-62.6-48.1l-14-2.6c-42.4,0-59.5,14.5-70.8,24.8
				c-5.7,5.2-12.9,13.4-19.1,24.3l-47.6-1C145.2,1108.2,161.2,1065.8,211.9,1045.1z M396,1189.4c-63.6,3.1-134.4,1.6-202.7,1.6
				c-22.2,0-45,2.6-65.2-3.1c-4.7-10.9,1.6-24.3,4.7-32.6c17.6-2.6,46,4.1,63.1-1.6c12.9-4.7,22.2-25.9,34.1-34.1
				c10.9-7.2,26.9-10.9,37.2-11.4c34.1-1,62.1,23.3,81.2,47.1c14.5,0.5,31.5-1.6,44,1.6C399.6,1165,400.7,1178.5,396,1189.4z
				 M631.3,1040.4c-20.7,5.2-42.4,9.8-56.9,21.2c-12.4-3.6-23.3-9.3-29-19.7C558.9,1017.7,616.3,1016.1,631.3,1040.4z M525.8,1044.6
				c2.1,9.8,50.2,32.6,50.2,32.6c31.5-22.2,70.8-29,70.8-29c1-2.1-3.6-7.2-4.1-9.3c5.7,6.2,21.2,12.4,41.4,45
				c-15,4.7-52.2,47.6-52.2,47.6c-11.4-1.6-175.3,2.1-188.7,0.5l-11.4-1c2.1-28.4,14-41.9,14-41.9
				C476.7,1061.1,525.8,1044.6,525.8,1044.6z M465.8,831c-5.7,0.5-12.4,1-18.6,1l17.1-36.2l-76.5-23.3l-21.2,5.2
				c-2.1-7.2-6.7-14.5-14-19.7c-25.3-19.7-78.1-14.5-92.6-40.3v-9.3c41.9-17.1,53.3-65.2,53.8-108.1c33.1,21.7,81.2,38.8,139.1,31.5
				c15-2.1,28.4-5.2,40.9-9.8c1,27.9,7.8,65.2,27.9,81.2c2.1,1.6,4.1,2.1,5.7,2.1c0.5,10.9,0.5,21.2,0,31.5
				C508.7,769.5,457,776.2,465.8,831z M375.3,796.3c-1,2.6-2.1,4.7-3.1,7.2c0.5-2.6,1-4.7,1.6-6.7L375.3,796.3z M371.7,804.1
				L371.7,804.1L371.7,804.1L371.7,804.1z M355.7,502.1c29.5-14.5,51.2,7.2,78.1,19.7c35.7,16.5,78.6,25.3,134.4,24.3
				c-8.8,17.6-8.8,15-18.6,23.3c-19.7,16-50.7,39.8-101.4,33.6c-30-3.6-76.5-33.1-95.7-51.7c-4.7-4.7-14-22.2-8.3-34.1
				c26.9,14,42.4,26.9,69.8,34.1C393.4,533.1,371.7,521.8,355.7,502.1z M702.6,769.5c17.1,27.9,29,68.3,9.8,103.9
				c-1,2.1-3.1,4.7-4.7,7.2c-7.2,11.9-16,21.7-35.7,25.3c-0.5-15.5,10.9-32.6,9.8-53.3c-9.3,7.8-10.9,21.7-16,32.6
				c-5.7,10.9-12.9,19.7-19.7,29c-9.8,9.3-21.2,18.6-34.1,16c4.7-22.2,14-48.6,9.8-74.5c-2.6,7.2-6.2,15.5-8.3,22.8
				c-6.7,22.8-18.6,42.9-30.5,61.5c-8.8,8.8-19.7,18.1-34.1,17.6c-43.4-1-17.6-55.3-8.3-77.6c8.8-20.2,16.5-39.3,19.7-56.9
				c-8.8,6.2-14.5,15-24.3,19.7c-32.1,3.1-57.4-9.8-53.3-34.1c3.1-21.2,37.7-23.3,47.1-40.3c5.7-14,12.9-25.9,21.2-35.7
				c0.5-0.5,0.5-1,1-1c12.9-25.9,77.6-25.3,85.3-16C664.4,726,689.2,747.2,702.6,769.5z M597.2,633.5c6.2,11.4,13.4,22.8,18.6,35.2
				c-21.2,0-55.8,6.7-73.4,22.8c-4.1-11.4-7.2-24.3-12.9-33.6c-1,6.7-1.6,14-2.1,21.7c-10.9-17.6-13.4-46-13.4-65.2
				c19.1-8.8,37.2-19.7,56.9-32.1C582.2,598.8,587.8,616.4,597.2,633.5z M301.9,344.4c3.1-32.1,6.2-34.1,22.2-47.1
				c0,0,3.1-39.3,3.6-49.1c1-13.4,7.8-41.4,15-51.7c2.6-3.6,2.6-3.6,10.3-9.8c8.8-6.7,20.7-13.4,32.1-17.6
				c19.7-7.8,44.5-16,67.2-17.6c59.5-4.7,108.6,20.2,136.5,45c1,1,2.1,1.6,2.6,2.6c16.5,19.7,27.9,42.4,37.2,66.7
				c1.6,7.2,2.1,14.5,2.6,22.2c-45,5.2-60.5,40.3-69.8,81.2c0,0,18.6,11.4,29.5,16c9.8,4.7,29,16,29,16s-9.8,5.7-14.5,8.3
				c-13.4,7.2-40.3,25.9-40.3,25.9c7.8,23.3,20.7,40.9,38.8,53.8c-4.7,18.1-15.5,37.2-27.4,40.3c-65.2,17.6-126.2-12.9-168.6-34.1
				c-14.5-7.2-27.4-17.1-50.2-12.9c-23.8,4.7-36.2,31.5-25.9,55.3c10.9,24.8,32.1,43.4,55.3,55.3c10.3,5.2,31,14.5,31,14.5
				c-23.8,2.6-46.5-3.1-65.2-11.4c-52.2-24.3-88.9-69.8-98.8-134.4c9.8-8.8,12.4-7.8,19.7-12.9c15-11.9,23.8-34.1,24.8-55.8
				C300.3,367.7,300.9,370.8,301.9,344.4z M256.9,442.1c10.3-14,21.2-36.7,17.6-61.5c-2.1-16.5-8.8-24.8-19.1-34.6
				c-2.1-2.6-7.8-5.7-7.8-7.8C291.5,343.9,297.2,430.2,256.9,442.1z M225.9,443.7c-51.2,1.6-60-97.2-4.7-102.4
				c29.5-2.6,48.1,26.4,45.5,56.9C264.7,420.4,245.5,443.2,225.9,443.7z M115.7,951c-3.6,0.5-6.7,1-9.8,1c-15,0-26.9-6.2-33.1-17.1
				c-6.2-11.9-4.7-27.4,4.1-41.9c2.6-1,5.7-2.1,8.8-3.6c7.8,19.1,30,41.4,45.5,49.6c1.6,0.5,2.6,1,8.3,3.1
				C128.1,945.8,118.3,949.9,115.7,951z M342.7,928.2c-63.1,2.1-88.9-33.1-118.4-64.6c4.7,21.2,17.6,37.2,31,51.7
				c3.6,4.1,8.8,7.8,9.8,14.5c-50.2,0-74.5-24.8-100.3-48.6c1,18.6,21.2,31,32.6,45.5c-57.9,2.6-88.9-33.6-92.6-74.5
				c-0.5-22.2,8.3-43.4,18.6-71.4l24.8-62.1c17.1-57.9,33.1-89.5,59-124.1c14-18.6,26.9-40.3,44-55.3c1,0.5,9.8,9.3,10.3,9.8
				c14,16.5,21.2,25.9,33.1,36.2c1,33.6-2.1,81.7-33.6,100.8c0.5-13.4,1.6-26.9,4.7-38.3c-9.8,6.7-13.4,14-17.6,24.3
				c-4.7,10.3-10.3,27.4-11.4,34.1c0,2.1-0.5,4.1-0.5,6.2c1.6,5.7,3.1,11.4,4.1,17.6c19.7,7.8,37.7,24.8,57.9,31.5
				c15,4.7,36.7,1,45.5,9.8c6.7,7.2,5.7,25.3,1.6,32.6c-9.8,17.1-49.1,24.3-69.8,9.8c3.6,9.3,12.9,18.1,23.8,26.9
				c0.5,0.5,1.6,1,2.1,1.6c5.7,4.7,11.9,9.8,18.1,15C340.7,876,381,907.5,342.7,928.2z M366,870.3c-2.6-3.1-5.2-6.2-7.2-8.8
				c-6.7-7.2-17.6-15-27.9-22.8c6.7-1.6,13.4-4.1,19.1-7.2c0.5,0,0.5-0.5,1-1c0.5-0.5,1-0.5,2.1-1c1-1,2.6-1.6,4.1-3.1
				c0.5-0.5,1.6-1,2.1-1.6c2.1-1.6,4.7-3.6,6.2-5.7c0.5-0.5,1-1,1.6-2.1c0.5-0.5,1-1.6,1-2.1c2.1-4.1,3.6-7.2,4.1-10.3
				c0,1,1.6,1.6,2.6,2.1c8.8,2.6,4.7,8.3,5.7,15.5c0.5,3.6,7.8,5.7,12.4,6.7c0.5-0.5,0.5-1.6,1-2.1c1,1,1.6,1.6,2.6,2.6
				c-1,0-2.1-0.5-3.1-0.5c-0.5,1.6-1,2.6-1.6,4.1c-0.5,1.6-1,3.1-1,4.7c0,3.1,1.6,6.2,4.7,10.3c2.6,3.6,2.6,5.2,6.2,7.8
				c0.5,0.5,1,0.5,1.6,1C387.7,862.5,373.2,868.2,366,870.3z M409.4,846c-1.6-1-2.6-2.6-3.6-4.1c-1.6-2.6-2.1-5.7-2.1-8.8
				c0-0.5,0-1,0.5-1.6c0-0.5,0-1,0.5-2.1c0.5-1,1-2.6,1.6-4.1c0.5-1.6-1.6-2.6-2.6-2.6c-9.3-2.6-9.3-7.8-11.4-16
				c-0.5-3.6-4.1-4.7-7.2-5.7c0,0.5-0.5,1-0.5,1.6c-1-1-1.6-1.6-2.6-2.6c1,0.5,2.1,0.5,3.1,1c1-2.6,2.1-4.7,3.1-7.2l33.1,10.3
				c1.6,4.7,3.6,9.3,7.2,12.4l0,0c1,1,1.6,1.6,2.6,2.6l-6.7,14.5l-8.3,18.1C413.6,849.6,411.5,848.1,409.4,846z M417.2,861.5
				c3.1-1.6,5.2-2.1,6.2-2.6C421.9,860.5,419.8,861.5,417.2,861.5z M423.9,858.9l1-2.6C425.5,856.9,425,857.9,423.9,858.9z
				 M695.9,1160.4c-7.2,9.8-40.9,7.8-63.1,8.3c-50.7,1-92.6,0-141.2,0c-23.3,0-46,1-64.6-5.2c1-6.7-1-10.9-1.6-16
				c67.7-3.6,142.2-0.5,212.5-1.6c13.4-13.4,25.9-26.9,40.3-35.7c2.6-1.6,3.1-4.1,8.3-3.1C698.5,1109.7,704.2,1150.1,695.9,1160.4z"
				/>
			<path fill="#E55499" d="M425,856.3l-1,2.6C425,857.9,425.5,856.9,425,856.3z M417.2,861.5c2.1-0.5,4.7-1.6,6.2-2.6
				C422.9,859.4,420.8,860.5,417.2,861.5z"/>
		</g>
	</g>
</g>
</svg>
